<svg width="454" height="101" viewBox="0 0 454 101" fill="none" xmlns="http://www.w3.org/2000/svg">
<g clip-path="url(#clip0_32_2296)">
<path d="M205.1 31.8999V22.1699H216.91V31.8999H205.1ZM216.9 38.5599V81.5499H205.09V38.5599H216.9Z" fill="white"/>
<path d="M263.05 84.7102C262.58 86.9302 261.57 88.9902 260.01 90.9102C258.46 92.8202 256.21 94.4402 253.27 95.7702C250.33 97.1002 246.4 97.7702 241.46 97.7702C239.35 97.7702 237.2 97.5102 235.02 96.9802C232.83 96.4502 230.83 95.6402 229.03 94.5302C227.23 93.4202 225.73 91.9902 224.54 90.2502C223.35 88.5002 222.67 86.4102 222.5 83.9702H234.23C234.78 86.1902 235.86 87.7302 237.47 88.5902C239.08 89.4502 240.93 89.8802 243.04 89.8802C246.37 89.8802 248.79 88.8802 250.32 86.8902C251.84 84.8902 252.58 82.3702 252.52 79.3202V73.6702H252.35C251.07 75.9402 249.26 77.6202 246.9 78.7002C244.54 79.7802 242.06 80.3202 239.46 80.3202C236.24 80.3202 233.47 79.7502 231.14 78.6202C228.81 77.4802 226.9 75.9302 225.4 73.9602C223.9 71.9902 222.81 69.6902 222.12 67.0602C221.43 64.4302 221.08 61.6402 221.08 58.7002C221.08 55.9302 221.48 53.2502 222.29 50.6802C223.09 48.1002 224.27 45.8302 225.82 43.8602C227.37 41.8902 229.3 40.3302 231.6 39.1602C233.9 38.0002 236.55 37.4102 239.54 37.4102C242.37 37.4102 244.85 37.9402 246.98 38.9902C249.11 40.0402 250.9 41.8202 252.34 44.3102H252.51V38.5702H263.74V78.8202C263.74 80.5402 263.5 82.5102 263.03 84.7202L263.05 84.7102ZM246.87 70.4002C248.14 69.7302 249.2 68.8502 250.03 67.7402C250.86 66.6302 251.49 65.3702 251.9 63.9602C252.31 62.5502 252.52 61.0602 252.52 59.5102C252.52 57.7402 252.35 56.0602 252.02 54.4802C251.69 52.9002 251.13 51.5002 250.36 50.2802C249.58 49.0602 248.56 48.0902 247.28 47.3702C246 46.6502 244.4 46.2902 242.46 46.2902C240.8 46.2902 239.37 46.6202 238.18 47.2902C236.99 47.9602 235.99 48.8602 235.19 49.9902C234.39 51.1302 233.8 52.4302 233.44 53.9002C233.08 55.3702 232.9 56.9102 232.9 58.5202C232.9 60.1302 233.05 61.6102 233.36 63.1402C233.66 64.6702 234.19 66.0402 234.94 67.2602C235.69 68.4802 236.67 69.4802 237.89 70.2502C239.11 71.0302 240.63 71.4102 242.46 71.4102C244.12 71.4102 245.59 71.0802 246.87 70.4102V70.4002Z" fill="white"/>
<path d="M269.52 31.8999V22.1699H281.33V31.8999H269.52ZM281.33 38.5599V81.5499H269.52V38.5599H281.33Z" fill="white"/>
<path d="M319.9 31.8999V22.1699H331.71V31.8999H319.9ZM331.71 38.5599V81.5499H319.9V38.5599H331.71Z" fill="white"/>
<path d="M350.42 38.5601V44.3801H350.59C352.14 42.1601 354.01 40.4401 356.2 39.2201C358.39 38.0001 360.9 37.3901 363.73 37.3901C366.56 37.3901 368.93 37.9201 371.17 38.9701C373.42 40.0201 375.12 41.8801 376.28 44.5401C377.55 42.6601 379.29 40.9901 381.48 39.5501C383.67 38.1101 386.26 37.3901 389.26 37.3901C391.53 37.3901 393.64 37.6701 395.58 38.2201C397.52 38.7701 399.18 39.6601 400.57 40.8801C401.96 42.1001 403.04 43.6901 403.81 45.6601C404.59 47.6301 404.97 50.0001 404.97 52.7701V81.5401H393.16V57.1701C393.16 55.7301 393.1 54.3701 392.99 53.1001C392.88 51.8301 392.57 50.7201 392.08 49.7701C391.58 48.8301 390.85 48.0801 389.88 47.5201C388.91 46.9701 387.59 46.6901 385.93 46.6901C384.27 46.6901 382.92 47.0101 381.9 47.6501C380.87 48.2901 380.07 49.1201 379.49 50.1401C378.91 51.1701 378.52 52.3301 378.33 53.6301C378.14 54.9301 378.04 56.2501 378.04 57.5801V81.5301H366.23V57.4101C366.23 56.1401 366.2 54.8701 366.15 53.6301C366.09 52.3801 365.86 51.2301 365.44 50.1801C365.02 49.1301 364.33 48.2801 363.36 47.6401C362.39 47.0001 360.96 46.6801 359.08 46.6801C358.53 46.6801 357.79 46.8001 356.88 47.0501C355.97 47.3001 355.08 47.7701 354.22 48.4601C353.36 49.1501 352.63 50.1501 352.02 51.4501C351.41 52.7501 351.11 54.4601 351.11 56.5601V81.5101H339.3V38.5201H350.44L350.42 38.5601Z" fill="white"/>
<path d="M198.7 38.6399C197.34 34.9799 195.46 31.9299 193.05 29.4899C190.64 27.0499 187.78 25.2199 184.48 23.9999C181.18 22.7799 177.62 22.1699 173.79 22.1699H148.18V81.5399H173.79C178.34 81.5399 182.29 80.7799 185.64 79.2499C188.99 77.7299 191.79 75.6299 194.04 72.9699C196.29 70.3099 197.96 67.1499 199.07 63.4899C200.18 59.8299 200.73 55.8399 200.73 51.5199C200.73 46.5899 200.05 42.2899 198.69 38.6299L198.7 38.6399ZM170.55 33.1499C173.76 33.1499 176.47 33.6099 178.66 34.5199C180.85 35.4299 182.61 36.7499 183.94 38.4699C185.27 40.1899 186.23 42.2499 186.81 44.6699C187.39 47.0799 187.68 49.7799 187.68 52.7799C187.68 56.0499 187.26 58.8199 186.43 61.0999C185.6 63.3699 184.49 65.2199 183.1 66.6299C181.71 68.0399 180.13 69.0599 178.36 69.6699C176.59 70.2799 174.76 70.5799 172.87 70.5799H161.23V35.8599L158.52 34.8199V33.1499H170.54H170.55Z" fill="white"/>
<path d="M306.56 32.1897C307.25 31.4397 308.4 31.0697 310.01 31.0697C311.51 31.0697 312.95 31.1497 314.33 31.3197V22.5097C313.33 22.4597 312.31 22.3897 311.25 22.2997C310.2 22.2197 309.14 22.1797 308.09 22.1797C303.27 22.1797 299.66 23.3997 297.28 25.8397C294.9 28.2797 293.7 31.4097 293.7 35.2397V38.5697H286.63V46.4697H293.7V81.5597H305.51V49.1597L302.84 48.1397V46.4697H308.17H313.65V38.5697H305.5V35.9897C305.5 34.2197 305.85 32.9497 306.54 32.2097L306.56 32.1897Z" fill="white"/>
<path d="M419.27 64.5901V62.9201H421.93H452.95C453.17 59.5901 452.89 56.4101 452.12 53.3601C451.34 50.3101 450.08 47.5901 448.34 45.2101C446.59 42.8301 444.36 40.9301 441.65 39.5101C438.93 38.1001 435.75 37.3901 432.09 37.3901C428.82 37.3901 425.84 37.9701 423.15 39.1401C420.46 40.3001 418.15 41.9001 416.21 43.9201C414.27 45.9401 412.77 48.3401 411.72 51.1101C410.67 53.8801 410.14 56.8801 410.14 60.0901C410.14 63.3001 410.65 66.4701 411.68 69.2401C412.71 72.0101 414.16 74.4001 416.05 76.3901C417.93 78.3901 420.24 79.9201 422.95 81.0101C425.67 82.0901 428.72 82.6301 432.1 82.6301C436.98 82.6301 441.14 81.5201 444.57 79.3001C448.01 77.0801 450.56 73.4001 452.22 68.2401H441.83C441.44 69.5701 440.39 70.8301 438.67 72.0201C436.95 73.2101 434.9 73.8101 432.52 73.8101C429.19 73.8101 426.64 72.9501 424.87 71.2301C423.56 69.9701 422.69 68.1301 422.26 65.7201M422.47 52.6101C422.77 51.5601 423.3 50.5601 424.05 49.6201C424.8 48.6801 425.8 47.8901 427.04 47.2501C428.29 46.6101 429.85 46.2901 431.74 46.2901C434.62 46.2901 436.77 47.0701 438.18 48.6201C439.59 50.1701 440.58 52.4501 441.13 55.4401H421.92C421.97 54.6101 422.16 53.6701 422.46 52.6101H422.47Z" fill="white"/>
<path d="M28.63 0L43.74 14.58V31.02V69.46V85.9L28.63 100.48H55.4V69.46V31.02V0H28.63Z" fill="#1454F5"/>
<path d="M0 0L21.29 14.58V31.02V69.46V85.9L0 100.48H26.78V69.46V31.02V0H0Z" fill="#1454F5"/>
<path d="M57.44 0L67.28 14.58V31.02V69.46V85.9L57.44 100.48H84.21V69.46V31.02V0H57.44Z" fill="#1454F5"/>
<path d="M86.37 0L91.29 14.58V85.9L86.37 100.48C101.16 100.48 113.15 88.49 113.15 73.7V26.78C113.15 11.99 101.16 0 86.37 0Z" fill="#1454F5"/>
</g>
<defs>
<clipPath id="clip0_32_2296">
<rect width="453.02" height="100.48" fill="white"/>
</clipPath>
</defs>
</svg>
