<svg width="23" height="20" viewBox="0 0 23 20" fill="none" xmlns="http://www.w3.org/2000/svg">
<path d="M5.68781 0L8.68966 2.90207V6.17436V13.8256V17.0979L5.68781 20H11.0061V13.8256V6.17436V0H5.68781Z" fill="#1454F5"/>
<path d="M0 0L4.22962 2.90207V6.17436V13.8256V17.0979L0 20H5.3203V13.8256V6.17436V0H0Z" fill="#1454F5"/>
<path d="M11.4114 0L13.3663 2.90207V6.17436V13.8256V17.0979L11.4114 20H16.7297V13.8256V6.17436V0H11.4114Z" fill="#1454F5"/>
<path d="M17.1589 0L18.1363 2.90207V17.0979L17.1589 20C20.0972 20 22.4792 17.6135 22.4792 14.6696V5.33041C22.4792 2.38654 20.0972 0 17.1589 0Z" fill="#1454F5"/>
</svg>
